<?xml version="1.0" standalone="no"?><!DOCTYPE svg PUBLIC "-//W3C//DTD SVG 1.1//EN" "http://www.w3.org/Graphics/SVG/1.1/DTD/svg11.dtd"><svg t="1651560633998" class="icon" viewBox="0 0 1024 1024" version="1.1" xmlns="http://www.w3.org/2000/svg" p-id="8033" xmlns:xlink="http://www.w3.org/1999/xlink" width="200" height="200"><defs><style type="text/css">@font-face { font-family: feedback-iconfont; src: url("//at.alicdn.com/t/font_1031158_u69w8yhxdu.woff2?t=1630033759944") format("woff2"), url("//at.alicdn.com/t/font_1031158_u69w8yhxdu.woff?t=1630033759944") format("woff"), url("//at.alicdn.com/t/font_1031158_u69w8yhxdu.ttf?t=1630033759944") format("truetype"); }
</style></defs><path d="M909.81 516.39c31.36-8.59 51.54-22.19 50.12-56.93-1-24.3-6.58-50.45-9.69-74.61-2.07-16-4.67-32.07-16.3-44.45-30.37-32.35-68.41-7.2-102.47 1.71a26.56 26.56 0 0 0-5.73 2.26c-2.22-4.19-3.42-8.43-2.25-12.43 0.91-3.1 22.51-19.78 24.36-21.75 12.13-12.94 26.07-29.1 29.39-47 5.13-27.64-18.52-82.36-38.17-101.57-21.61-21.12-68.6-34.48-98.07-35.93-16.56-0.82-32.75 4.3-44.36 16.41a19.69 19.69 0 0 0-1.46 2c0.64-16.77-0.34-33.39-7.81-46.9-13.21-23.9-46.77-28.46-71.18-30.62-25.72-2.28-58.09-2.53-72 23.68-6.43 12.07-4.72 25.42-4.07 38.47 0.86 17.25-6 25.25-16.07 33-1.53-2.1-3-4.19-4.38-6.3l0.71-0.39c2.07-1.12 3.51-4.2 2.65-6.51l-2.29-6.13a2.32 2.32 0 0 0-4.18-0.55c10.8-14.09-5.52-49-18.3-58.5-15.92-11.78-45.65-8.64-63.51-5.11-25.92 5.12-51.41 16.84-62.41 42.36-11.63 26.97 16.66 98-44.57 82.4-27.77-7-35.77-35.94-73.26-29.77-24.65 4.06-39.92 21.28-55.5 39.61-21.39 25.15-49.78 56.47-47.39 91.81 2.24 33.19 27 45.18 42.9 69.81-8.67 9.51-13.72 23.24-18.07 34.62-1.3 3.4-2.45 7.19-3.76 10.93-5.11 0.66-10.93-3.94-24.46-7.4-41.7-10.66-69.62 25.07-79.65 60.93-13.63 48.77 5.53 108 27 152.09 17.25 35.47 45.77 32.17 79.67 32.12 11.31 9.27 21.07 23.24 29.2 36-19.18 12-40.18 19.94-48 44.9-9.36 29.91 10.59 61.74 28.26 83.84 19.06 23.84 42.17 45.5 74.15 46.76 22.5 0.89 28-9.59 47.76-15.63 37.33-11.4 54.22-16.06 83.35-3.18-12.91 57.19-19.34 99.35 61.78 106.44 69.92 6.11 116.43-4.31 116.48-78.15 8.42-0.52 17.82 3.87 27 14.7 13.35 15.67 17 30.86 26.44 48.81 5.25 10 19 15.35 29.69 12.08 44.53-13.62 104.71-11.32 121.93-64.8 6.56-20.39 3.26-42.77-2.44-62.84-1.93-6.78-13-23-11.57-29.56 1.73-8.1 19.37-18.28 33.81-25 26.9 38.86 55.35 46.7 97.82 5.27 55.84-54.48 46.93-118 32.72-188.71-2.9-14.42-17.26-19.45-29.65-16.81-2.51-10.07-5.45-20.5-6.09-24.13-0.51-2.89-9.29-22.68-7.93-25.53 1.04-2.1 28.57-5.47 29.85-5.82z m-62.67 63.88c5.8 10.95 16.83 20.45 29.07 25.1 3.1 23 8.91 46.06 5.87 69.11-2.46 18.66-30.89 100.93-57.68 54.89-5.41-9.3-17.36-14.31-27.78-11.3-28.93 8.35-79.26 36.55-88.35 68.45-4.14 14.54-0.2 21.61 3.15 36.36 14.49 63.88-8.59 60.83-53.65 74-14.12-34.4-13.75-63.81-69.1-59a134.33 134.33 0 0 0-30.33 6.45c-12.79-9.43-34.42-4.08-35.69 17-4.88 80.73-93.87 53.4-76.56-18.22 2.74-11.32-1.76-24.16-12.22-30-45.06-25.27-76.6-48.4-126.16-23-19.44 10-23.16 19.1-47 17.61-22.53-1.41-56.62-30.51-42.54-58.92 4.68-9.44 36.41-22.83 45.72-35.2 7.23-9.61 3.38-24.81-4.23-32.79-5.91-6.2-11.54-12.37-17.11-18.4a2.89 2.89 0 0 0 3.09-2l8.8-26.62c1.24-3.74-4.63-5.32-5.88-1.62l-8.93 26.58c-0.08 0.23 0.08 0.36 0.05 0.57-10.32-11-20.53-21.09-31.82-27.75a28 28 0 0 0-3.16-14.27c20-30.42 59.41-50.14 59.27-90.73 0-4.64-7.16-4.64-7.2 0-0.39 36.87-36.06 56.43-57.42 83.88a24.59 24.59 0 0 0-10.58-5.77c-8.88-2.22-19.3-3-28.86-4.31 4.76-17.53 23.53-34.21 33.48-48.27 16.4-23.16 32.92-46.1 51.74-67.38 3-3.39-1.91-8.37-5-5-22.21 24.35-40.57 51.16-60.69 77.15-10.27 13.27-24.11 25.51-28.79 41.79-1.08-0.24-2.29-0.4-3.31-0.69a39.56 39.56 0 0 0-6.17-1.34c0.07-1.42-0.65-3.93-3.19-8.31C124.6 565.31 111.32 534 112 507.08c1.3-50.45 18.21-37.27 49.32-41.85 30.15-4.44 41.89-24.72 49.6-49.28a89.24 89.24 0 0 1 6.67-11.25c2.54-3.41 5.55-3.56-0.59-2.89 13.93-1.54 19.51-12.56 18.19-22.44 6-6.75 8.5-16.47 2.63-26.79-11.15-19.59-39.18-49.11-34-71.35 1.79-7.75 24.66-36.79 32.91-42.15 20-13 37.41-8.13 60.53 4.58 27.39 15.05 40.82 32.18 75 17.29 28.5-12.42 42.13-34.44 40.57-64.67-0.31-6.05-3.9-12.29-3.68-18.17 0.87-23.31 18-71.57 48.37-73 14.8-0.68 23.45 4.78 29.75 13a220.75 220.75 0 0 0 17.82 77.5c3.16 7.32 13.39 10.16 20.48 8.33 20.12-5.18 40.7-13.1 52.84-30.92 6-8.74 8.81-19.14 9.37-29.67 0.48-9-5.4-24.73 0.19-31.36 7.72-9.16 55.28-1.7 61.25 7.5 9.5 14.65-2.36 51.25-3.64 67.86-0.7 9.1 3.42 15.47 9.45 19.14 0.52 12.14 8.56 23.84 23.11 22.49 32.73-3 31.73-20.73 49.65-41.65 10.25-12 10.47-10.16 27.42-6.86 6.66 1.3 13.79 3.86 20.22 6 28 9.33 32.87 19.62 42 47.22 8.23 24.78 4.35 32.76-13 53.82-8.21 10-20.12 19.7-21.9 33.33-2.9 22.16 15.57 37.42 33.38 49.56 3.41 10.71 13.73 19.63 28.07 16.93 25.85-4.86 47.72-16.84 58.12 14.83 3.4 10.34 9.24 50.71 6.28 58-9.62 23.69-62 9.78-74.55 45.38-7.18 20.34 3.7 56.6 13.31 74.73z" fill="#333333" p-id="8034"></path><path d="M723.41 413.24a20.82 20.82 0 0 0 4.58-13l-0.06-5.63c-0.16-15.1-11.4-23.46-24-23.73-12.18-21.21-27.1-40.57-45.3-56.57-59.66-52.44-139.54-51.78-211.28-27-84.84 29.25-119.93 92.66-160.93 169-3.95 7.35 1.41 15.86 8 18.06-8.32 38.8-9.82 78.51-4 110.87 7.43 41.19 27.09 75.51 54.17 102.25-11.34 24.32 21.38 50.78 43.6 33.11 77.57 44.91 183.78 45.88 259.08-8.11A198.74 198.74 0 0 0 677.15 686a56.08 56.08 0 0 0 9.83 0.45c23.14-1 38.12-31.37 23.36-47.87 35.05-67.02 38.84-152.78 13.07-225.34zM516 315.34a205.27 205.27 0 0 1 26.73-0.87c53.38 2.09 92.66 31.23 117.64 72.31-24.67 10.9-48.2 22-72.29 36.89-17.76 11-39.69 27.46-61.51 38.23C522 417.81 511.6 359.46 516 315.34z m-151 82.83c35.33-38 75.31-68.37 127.09-79.26-8.66 45.54 1.79 98.7-0.62 143.57-0.18 3.32-0.15 6.71-0.3 10-8.15 0.47-17.27 0.4-26.74 0.07-35.67-23.35-70-51.21-111-55 3.43-6.04 7.19-12.55 11.57-19.38z m10 254.71c-3.33-3.17-6.69-6.3-9.77-9.76-41.39-46.41-45.29-108.55-32.52-166.68 21 9.36 45.48 12.28 67.74 19.81 25.32 8.57 49.59 26.51 74.81 34.89-9.2 12.1-18.26 24.49-28.48 36.49-24.28 28.45-47.03 57.59-71.78 85.25z m43.6 30.4c26.79-37.75 48.72-79.21 72-119.59 1.2 47.31 5.01 94.76 12.4 140.75a204.06 204.06 0 0 1-84.45-21.17zM552.07 700c0.63-47.36-7.28-95.17-14.42-142.9 14.76 11.78 29.49 23.59 43.76 36.2 20.44 18.06 34.86 35.19 50.27 57.43 1.5 2.17 3 4.26 4.53 6.32-23.62 21.95-52.9 36.24-84.14 42.95z m118.86-89.7c-16.78-15.48-32.12-33.79-51.11-46.16-17.58-11.45-35.12-23.38-53.24-34-6-3.48-13.27-6.6-20.72-9.87 8.69-5 17.28-10.37 25.93-15.6 36.63-22.16 74.46-43.92 110.76-67 16.79 57.14 12.99 123.04-11.62 172.63zM240.63 416.84c-23.46 17.07-38.53 39.87-56.33 62.31-18.55 23.38-37.56 45.48-52 71.81-2.74 5 4.95 9.5 7.66 4.48 13.84-25.7 32.2-47.58 50.16-70.41 17.14-21.79 31.72-44.77 54.37-61.48 4.03-2.93 0.2-9.66-3.86-6.71zM295.8 745.65c-3.39 0-3.39 5.26 0 5.26s3.39-5.26 0-5.26z" fill="#333333" p-id="8035"></path></svg>